<?xml version="1.0" encoding="UTF-8"?>
<svg id="Layer_2" data-name="Layer 2" xmlns="http://www.w3.org/2000/svg" xmlns:xlink="http://www.w3.org/1999/xlink" viewBox="0 0 209.53 239.21">
  <defs>
    <style>
      .cls-1 {
        fill: url(#linear-gradient);
      }

      .cls-2 {
        fill: #fff;
      }
    </style>
    <linearGradient id="linear-gradient" x1="10.38" y1="168.14" x2="196.24" y2="60.84" gradientUnits="userSpaceOnUse">
      <stop offset="0" stop-color="#ed7129"/>
      <stop offset="1" stop-color="#f2cc3a"/>
    </linearGradient>
  </defs>
  <g id="Layer_1-2" data-name="Layer 1">
    <g>
      <g>
        <path class="cls-2" d="M209.3,83.56c-1.93-4.62-10.4-8.09-22.92-16.76-12.52-8.67-17.91-18.3-19.45-23.5-1.54-5.2-22.54-13.29-20.81-31.59-18.49-7.51-61.54-20.42-116.92-3.08,21.86,6.16,29.18,15.22,29.18,15.22-10.9,7.18-45.4,35.43-54.1,63.47,0,0,28.58-45.17,95.42-46.33h0c4.96-.12,21.18-.21,26.53,3.83-7.24,4.7-12.59,6.02-28.68,8.34-2.52,14.35,18.37,58.92,56.08,39.46-18.68,34.29,43.69,39.25,48.16,17.33,2.12-10.4-14.48-17.08-13.87-17.14,12.91-1.35,23.31-4.62,21.38-9.24ZM140.29,55.38l20.28-.94c.18,3.13,2.08,6.37,4.65,9.66l-24.93-8.72Z"/>
        <path class="cls-2" d="M144.76,239.21c.62-3.52.94-7.14.94-10.84,0-31.76-23.86-57.94-54.62-61.6,6.51-11.18,17-17.75,32.65-19.24-29.97-7.88-49.06,16.08-51.48,19.32-6.13-2.37-12.8-3.67-19.77-3.67-9.81,0-19.03,2.58-26.99,7.1,8.22-40.21,31.22-59.81,65.3-71.29-31.89,2.45-57.48,10.16-90.77,51.17,3.85-31.54,24.88-90.08,86.57-95.69,0,0-3.15,41.36,49.42,56.43-7.24,24.08,5.82,38.44,17.53,58.18,11.71,19.74,17.04,44.26-8.76,70.12Z"/>
        <path class="cls-2" d="M207.08,128.39c-3.66,20.79-13.04,39.51-26.43,54.56-3.52-16.94-10.41-32.69-19.98-46.48,3.97,1.05,8.12,1.68,12.39,1.83,12.6.46,24.38-3.26,34.01-9.91Z"/>
      </g>
      <g>
        <path class="cls-1" d="M209.3,83.56c-1.93-4.62-10.4-8.09-22.92-16.76-12.52-8.67-17.91-18.3-19.45-23.5-1.54-5.2-22.54-13.29-20.81-31.59-18.49-7.51-61.54-20.42-116.92-3.08,21.86,6.16,29.18,15.22,29.18,15.22-10.9,7.18-45.4,35.43-54.1,63.47,0,0,28.58-45.17,95.42-46.33h0c4.96-.12,21.18-.21,26.53,3.83-7.24,4.7-12.59,6.02-28.68,8.34-2.52,14.35,18.37,58.92,56.08,39.46-18.68,34.29,43.69,39.25,48.16,17.33,2.12-10.4-14.48-17.08-13.87-17.14,12.91-1.35,23.31-4.62,21.38-9.24ZM140.29,55.38l20.28-.94c.18,3.13,2.08,6.37,4.65,9.66l-24.93-8.72Z"/>
        <path class="cls-1" d="M144.76,239.21c.62-3.52.94-7.14.94-10.84,0-31.76-23.86-57.94-54.62-61.6,6.51-11.18,17-17.75,32.65-19.24-29.97-7.88-49.06,16.08-51.48,19.32-6.13-2.37-12.8-3.67-19.77-3.67-9.81,0-19.03,2.58-26.99,7.1,8.22-40.21,31.22-59.81,65.3-71.29-31.89,2.45-57.48,10.16-90.77,51.17,3.85-31.54,24.88-90.08,86.57-95.69,0,0-3.15,41.36,49.42,56.43-7.24,24.08,5.82,38.44,17.53,58.18,11.71,19.74,17.04,44.26-8.76,70.12Z"/>
        <path class="cls-1" d="M207.08,128.39c-3.66,20.79-13.04,39.51-26.43,54.56-3.52-16.94-10.41-32.69-19.98-46.48,3.97,1.05,8.12,1.68,12.39,1.83,12.6.46,24.38-3.26,34.01-9.91Z"/>
      </g>
    </g>
  </g>
</svg>